<mxfile host="app.diagrams.net" modified="2020-10-22T10:40:36.687Z" agent="5.0 (X11; Linux x86_64) AppleWebKit/537.36 (KHTML, like Gecko) Chrome/86.0.4240.111 Safari/537.36" etag="Casn8sWapS6AF4U2e0o4" version="13.8.1" type="github">
  <diagram id="9NGbtEXjYlT8ydZ7uAUv" name="Page-1">
    <mxGraphModel dx="1422" dy="770" grid="1" gridSize="10" guides="1" tooltips="1" connect="1" arrows="1" fold="1" page="1" pageScale="1" pageWidth="2000" pageHeight="2000" math="0" shadow="0">
      <root>
        <mxCell id="0" />
        <mxCell id="1" parent="0" />
        <mxCell id="CBe2BMZHforzUN9kyrMT-4" value="" style="edgeStyle=orthogonalEdgeStyle;rounded=0;orthogonalLoop=1;jettySize=auto;html=1;" edge="1" parent="1" source="CBe2BMZHforzUN9kyrMT-1" target="CBe2BMZHforzUN9kyrMT-3">
          <mxGeometry relative="1" as="geometry" />
        </mxCell>
        <mxCell id="CBe2BMZHforzUN9kyrMT-1" value="on playbutton button clicked" style="rounded=0;whiteSpace=wrap;html=1;" vertex="1" parent="1">
          <mxGeometry x="20" y="20" width="120" height="60" as="geometry" />
        </mxCell>
        <mxCell id="CBe2BMZHforzUN9kyrMT-6" value="" style="edgeStyle=orthogonalEdgeStyle;rounded=0;orthogonalLoop=1;jettySize=auto;html=1;" edge="1" parent="1" source="CBe2BMZHforzUN9kyrMT-3" target="CBe2BMZHforzUN9kyrMT-5">
          <mxGeometry relative="1" as="geometry" />
        </mxCell>
        <mxCell id="CBe2BMZHforzUN9kyrMT-3" value="get the option element at current selected index" style="whiteSpace=wrap;html=1;rounded=0;" vertex="1" parent="1">
          <mxGeometry x="20" y="100" width="120" height="60" as="geometry" />
        </mxCell>
        <mxCell id="CBe2BMZHforzUN9kyrMT-8" value="" style="edgeStyle=orthogonalEdgeStyle;rounded=0;orthogonalLoop=1;jettySize=auto;html=1;" edge="1" parent="1" source="CBe2BMZHforzUN9kyrMT-5" target="CBe2BMZHforzUN9kyrMT-7">
          <mxGeometry relative="1" as="geometry" />
        </mxCell>
        <mxCell id="CBe2BMZHforzUN9kyrMT-5" value="clear the radioplayer element" style="whiteSpace=wrap;html=1;rounded=0;" vertex="1" parent="1">
          <mxGeometry x="20" y="180" width="120" height="60" as="geometry" />
        </mxCell>
        <mxCell id="CBe2BMZHforzUN9kyrMT-10" value="" style="edgeStyle=orthogonalEdgeStyle;rounded=0;orthogonalLoop=1;jettySize=auto;html=1;" edge="1" parent="1" source="CBe2BMZHforzUN9kyrMT-7" target="CBe2BMZHforzUN9kyrMT-9">
          <mxGeometry relative="1" as="geometry" />
        </mxCell>
        <mxCell id="CBe2BMZHforzUN9kyrMT-7" value="create new audio and source tag" style="whiteSpace=wrap;html=1;rounded=0;" vertex="1" parent="1">
          <mxGeometry x="20" y="260" width="120" height="60" as="geometry" />
        </mxCell>
        <mxCell id="CBe2BMZHforzUN9kyrMT-14" value="" style="edgeStyle=orthogonalEdgeStyle;rounded=0;orthogonalLoop=1;jettySize=auto;html=1;" edge="1" parent="1" source="CBe2BMZHforzUN9kyrMT-9" target="CBe2BMZHforzUN9kyrMT-13">
          <mxGeometry relative="1" as="geometry" />
        </mxCell>
        <mxCell id="CBe2BMZHforzUN9kyrMT-9" value="apply controls, autoplay, preload and volume from settings on audio tag" style="whiteSpace=wrap;html=1;rounded=0;" vertex="1" parent="1">
          <mxGeometry x="180" y="260" width="120" height="60" as="geometry" />
        </mxCell>
        <mxCell id="CBe2BMZHforzUN9kyrMT-16" value="" style="edgeStyle=orthogonalEdgeStyle;rounded=0;orthogonalLoop=1;jettySize=auto;html=1;" edge="1" parent="1" source="CBe2BMZHforzUN9kyrMT-11" target="CBe2BMZHforzUN9kyrMT-15">
          <mxGeometry relative="1" as="geometry" />
        </mxCell>
        <mxCell id="CBe2BMZHforzUN9kyrMT-11" value="set src tag equal to the player link with stations id from option and type to audio/mpeg" style="whiteSpace=wrap;html=1;rounded=0;" vertex="1" parent="1">
          <mxGeometry x="180" y="20" width="120" height="80" as="geometry" />
        </mxCell>
        <mxCell id="CBe2BMZHforzUN9kyrMT-19" style="edgeStyle=orthogonalEdgeStyle;rounded=0;orthogonalLoop=1;jettySize=auto;html=1;entryX=0.5;entryY=1;entryDx=0;entryDy=0;" edge="1" parent="1" source="CBe2BMZHforzUN9kyrMT-13" target="CBe2BMZHforzUN9kyrMT-11">
          <mxGeometry relative="1" as="geometry" />
        </mxCell>
        <mxCell id="CBe2BMZHforzUN9kyrMT-13" value="add event listener that listents for volume change on audio tag" style="whiteSpace=wrap;html=1;rounded=0;" vertex="1" parent="1">
          <mxGeometry x="180" y="150" width="120" height="60" as="geometry" />
        </mxCell>
        <mxCell id="CBe2BMZHforzUN9kyrMT-18" value="" style="edgeStyle=orthogonalEdgeStyle;rounded=0;orthogonalLoop=1;jettySize=auto;html=1;" edge="1" parent="1" source="CBe2BMZHforzUN9kyrMT-15" target="CBe2BMZHforzUN9kyrMT-17">
          <mxGeometry relative="1" as="geometry" />
        </mxCell>
        <mxCell id="CBe2BMZHforzUN9kyrMT-15" value="append source tag to audio tag" style="whiteSpace=wrap;html=1;rounded=0;" vertex="1" parent="1">
          <mxGeometry x="340" y="30" width="120" height="60" as="geometry" />
        </mxCell>
        <mxCell id="CBe2BMZHforzUN9kyrMT-17" value="append audio tag to element with id radioplayer" style="whiteSpace=wrap;html=1;rounded=0;" vertex="1" parent="1">
          <mxGeometry x="340" y="110" width="120" height="60" as="geometry" />
        </mxCell>
      </root>
    </mxGraphModel>
  </diagram>
</mxfile>
